<?xml version="1.0" encoding="utf-8"?><svg xmlns="http://www.w3.org/2000/svg" xmlns:xlink="http://www.w3.org/1999/xlink"><symbol viewBox="0 0 23 24" id="+" xmlns="http://www.w3.org/2000/svg"><path d="M.688 10.784h9.456V.368h2.784v10.416h9.456v2.688h-9.456v10.464h-2.784V13.472H.688v-2.688z"/></symbol><symbol viewBox="0 0 31 31" id="Vector" xmlns="http://www.w3.org/2000/svg"><path d="M30.412 9.538l-1.927-1.927a.887.887 0 0 0-1.046-.13 2.818 2.818 0 0 1-3.527-.392 2.823 2.823 0 0 1-.392-3.528.846.846 0 0 0-.131-1.046L21.462.588a2.05 2.05 0 0 0-2.875 0l-4.9 4.9 2.025 2.025-1.176 1.176-2.025-2.025L.588 18.587a2.05 2.05 0 0 0 0 2.875l1.927 1.927a.839.839 0 0 0 1.013.13c1.11-.685 2.548-.49 3.495.425a2.86 2.86 0 0 1 .425 3.495c-.196.327-.163.752.13 1.013l1.96 1.96c.392.392.915.588 1.438.588.522 0 1.045-.196 1.437-.588l11.923-11.923-2.025-2.025 1.176-1.176 2.025 2.025 4.9-4.9a2.05 2.05 0 0 0 0-2.875zm-14.765.294l1.176-1.176 2.189 2.19-1.176 1.175-2.189-2.189zm5.488 5.488l-2.189-2.188 1.176-1.176 2.189 2.188-1.176 1.176z"/></symbol><symbol viewBox="0 0 28 28" id="logo" xmlns="http://www.w3.org/2000/svg"><g clip-path="url(#cclip0)"><path d="M5.472 14.969a1.269 1.269 0 1 0 0-2.538 1.269 1.269 0 0 0 0 2.538zm16.661 0a1.269 1.269 0 1 0 0-2.538 1.269 1.269 0 0 0 0 2.538z"/><path d="M14 0A13.973 13.973 0 0 0 2.728 5.608h3.971a8.665 8.665 0 0 0 4.094-1.105c.396-.208.835-.32 1.283-.328a2.92 2.92 0 0 1 2.933 2.852 2.893 2.893 0 0 1-4.284 2.525 10.63 10.63 0 0 0-5.008-1.365H4.352a9.62 9.62 0 0 0-3.343.628 14 14 0 0 0 0 10.37 7.465 7.465 0 0 0 1.897.26h3.357a8.665 8.665 0 0 0 4.093-1.106c.396-.208.836-.32 1.283-.327a2.92 2.92 0 0 1 2.947 2.838 2.892 2.892 0 0 1-4.243 2.592 10.629 10.629 0 0 0-5.008-1.364H3.97a8.6 8.6 0 0 0-1.241.096A14 14 0 1 0 13.999 0zm8.187 17.18a3.383 3.383 0 0 1-1.61-.41 12.512 12.512 0 0 0-5.895-1.637h-1.61a12.52 12.52 0 0 0-5.895 1.637 3.397 3.397 0 0 1-5.008-3.056 3.439 3.439 0 0 1 3.48-3.33 3.37 3.37 0 0 1 1.5.396 10.193 10.193 0 0 0 4.763 1.364h3.957a10.194 10.194 0 0 0 4.762-1.364 3.37 3.37 0 0 1 1.501-.396 3.439 3.439 0 0 1 3.48 3.343 3.398 3.398 0 0 1-3.398 3.452h-.027z"/><path d="M11.585 21.928a1.078 1.078 0 1 0 0-2.156 1.078 1.078 0 0 0 0 2.156zm.423-13.85a1.078 1.078 0 1 0 0-2.156 1.078 1.078 0 0 0 0 2.156z"/></g><defs><clipPath id="cclip0"><path d="M0 0h28v28H0z"/></clipPath></defs></symbol><symbol viewBox="0 0 17 9" id="scroll" xmlns="http://www.w3.org/2000/svg"><path d="M1 1l7.5 7L16 1"/></symbol><symbol viewBox="0 0 31 31" id="video" xmlns="http://www.w3.org/2000/svg"><path d="M15.5 0C6.938 0 0 6.938 0 15.5 0 24.062 6.938 31 15.5 31 24.062 31 31 24.062 31 15.5 31 6.938 24.062 0 15.5 0zm5.314 16.829l-7.38 5.055c-1.07.739-2.547-.036-2.547-1.328V10.444c0-1.292 1.513-2.067 2.546-1.329l7.344 5.056c.96.628.96 2.03.037 2.658z"/></symbol></svg>